# xmcd CD database file
#
# Track frame offsets:
#	150
#	23587
#	41480
#	61290
#	89147
#	103182
#	133605
#	168500
#	191107
#	219790
#	248680
#	261010
#
# Disc length: 3680 seconds
#
# Revision: 0
# Processed by: cddbd v1.5PL3 Copyright (c) Steve Scherf et al.
# Submitted via: CDex 1.50beta8
#
DISCID=a40e5e0c
DTITLE=Samantha Fox - I Wanna Have More Fun -12゛ Version Collection
DYEAR=1988
DGENRE=Pop
TTITLE0=I Wanna Have Some Fun (Extended Mix)
TTITLE1=I Wanna Have Some Fun (UK Single Mix)
TTITLE2=I Wanna Have Some Fun (Full Force Single Edit)
TTITLE3=I Wanna Have Some Fun (Have Some Fun Mix)
TTITLE4=Don't Cheat On Me
TTITLE5=Love House (The Black Pyramid Mix)
TTITLE6=Love House (Sulphuric Mix)
TTITLE7=I Only Wanna Be With You (Extended Mix)
TTITLE8=I Only Wanna Burn With You
TTITLE9=I Only Wanna House With You
TTITLE10=I Only Wanna Be With You (Special Single Edit)
TTITLE11=I Only Wanna Be With You (Acapella Mix)
EXTD=YEAR: 1988
EXTT0=
EXTT1=
EXTT2=
EXTT3=
EXTT4=
EXTT5=
EXTT6=
EXTT7=
EXTT8=
EXTT9=
EXTT10=
EXTT11=
PLAYORDER=
